<svg width="31" height="31" viewBox="0 0 31 31" fill="none" xmlns="http://www.w3.org/2000/svg">
<path fill-rule="evenodd" clip-rule="evenodd" d="M0.572012 15.4371C0.588918 15.1685 0.684305 14.9108 0.846335 14.696C1.00837 14.4812 1.22991 14.3187 1.48347 14.2286L21.6714 7.0727C21.8755 7.0001 22.0961 6.98688 22.3075 7.03457C22.5189 7.08225 22.7124 7.1889 22.8657 7.34213C23.0189 7.49535 23.1255 7.68889 23.1732 7.90028C23.2209 8.11166 23.2077 8.33223 23.1351 8.53641L15.9792 28.7243C15.8953 28.9605 15.7485 29.1693 15.5545 29.328C15.3605 29.4868 15.1268 29.5894 14.8787 29.6249C14.6306 29.6604 14.3775 29.6273 14.1468 29.5292C13.9162 29.4312 13.7167 29.2719 13.57 29.0687L8.36221 21.8456L1.13911 16.6377C0.950829 16.5018 0.800062 16.3204 0.700891 16.1105C0.60172 15.9005 0.55738 15.6688 0.572012 15.4371V15.4371ZM9.88107 21.3874L14.6456 27.996L21.4727 8.73511L2.21179 15.5622L8.82041 20.3267L14.0261 15.121C14.1668 14.9803 14.3576 14.9013 14.5565 14.9013C14.7554 14.9013 14.9461 14.9803 15.0868 15.121C15.2274 15.2616 15.3065 15.4524 15.3065 15.6513C15.3065 15.8502 15.2274 16.041 15.0868 16.1816L9.88107 21.3874Z" fill="#32322C"/>
</svg>
